<svg xmlns="http://www.w3.org/2000/svg" xmlns:xlink="http://www.w3.org/1999/xlink"><defs><path id="a" d="M1007.5 4506l-30.5-35h61z"/><path id="b" d="M1007 4525v-20h2v20z"/><path id="c" d="M998 4527v-2h20v2z"/><clipPath id="d"><use xlink:href="#a"/></clipPath><clipPath id="e"><use xlink:href="#b"/></clipPath><clipPath id="f"><use xlink:href="#c"/></clipPath><path id="a" d="M721.88 4472c14.98 0 27.12 12.31 27.12 27.5s-12.14 27.5-27.12 27.5c-14.99 0-27.13-12.31-27.13-27.5s12.14-27.5 27.13-27.5z"/><path id="b" d="M697.12 4472c14.99 0 27.13 12.31 27.13 27.5s-12.14 27.5-27.13 27.5c-14.98 0-27.12-12.31-27.12-27.5s12.14-27.5 27.12-27.5z"/><clipPath id="c"><use xlink:href="#a"/></clipPath><clipPath id="d"><use xlink:href="#b"/></clipPath><path id="a" d="M135 4492.5l-19 33.5H78l-19-33.5 19-33.5h38z"/><path id="b" d="M80 4509v-34h34v34z"/><clipPath id="c"><use xlink:href="#a"/></clipPath><clipPath id="d"><use xlink:href="#b"/></clipPath><path id="a" d="M364 4527v-65h65v65z"/><path id="b" d="M397 4477a18 18 0 1 1 0 36 18 18 0 0 1 0-36z"/><clipPath id="c"><use xlink:href="#a"/></clipPath><clipPath id="d"><use xlink:href="#b"/></clipPath></defs><symbol id="icon-aviation" viewBox="0 0 41.29 40.61"><title>Aviation</title><g data-name="Layer 2"><g data-name="Layer 5"><path d="M41.29 37.95L29.58 30.7V19.04l11.71 7.25v11.66z"/><path d="M0 36.97l11.71-6.27V19.04L0 25.3v11.67z"/><path d="M26.56 8.24C26.36 3.64 23.79 0 20.65 0s-5.71 3.64-5.92 8.24v32.37h11.85V8.26z"/></g></g></symbol><symbol id="icon-cocktail" viewBox="0 0 65 59"><g transform="translate(-975 -4469)"><use xlink:href="#a"/><use fill-opacity="0" stroke-miterlimit="50" stroke-width="4" clip-path="url(&quot;#d&quot;)" xlink:href="#a"/></g><use fill-opacity="0" stroke-miterlimit="50" stroke-width="4" clip-path="url(&quot;#e&quot;)" xlink:href="#b" transform="translate(-975 -4469)"/><use fill-opacity="0" stroke-miterlimit="50" stroke-width="4" clip-path="url(&quot;#f&quot;)" xlink:href="#c" transform="translate(-975 -4469)"/></symbol><symbol id="icon-double-circles" viewBox="0 0 81 58"><use fill-opacity="0" stroke-miterlimit="50" stroke-width="4" clip-path="url(&quot;#c&quot;)" xlink:href="#a" transform="translate(-669 -4470)"/><use fill-opacity="0" stroke-miterlimit="50" stroke-width="4" clip-path="url(&quot;#d&quot;)" xlink:href="#b" transform="translate(-669 -4470)"/></symbol><symbol id="icon-hex-square" viewBox="0 0 78 71"><use fill-opacity="0" stroke-miterlimit="50" stroke-width="4" clip-path="url(&quot;#c&quot;)" xlink:href="#a" transform="translate(-58 -4457)"/><g transform="translate(-58 -4457)"><use xlink:href="#b"/><use fill-opacity="0" stroke-miterlimit="50" stroke-width="4" clip-path="url(&quot;#d&quot;)" xlink:href="#b"/></g></symbol><symbol id="icon-square-circle" viewBox="0 0 68 68"><use fill-opacity="0" stroke-miterlimit="50" stroke-width="4" clip-path="url(&quot;#c&quot;)" xlink:href="#a" transform="translate(-362 -4460)"/><use fill-opacity="0" stroke-miterlimit="50" stroke-width="4" clip-path="url(&quot;#d&quot;)" xlink:href="#b" transform="translate(-362 -4460)"/></symbol></svg>