<svg xmlns="http://www.w3.org/2000/svg" xmlns:xlink="http://www.w3.org/1999/xlink" width="77" height="63" viewBox="0 0 77 63"><defs><path id="w564a" d="M61 5348.86a18.14 18.14 0 0 1 18.14-18.14h6.72a18.14 18.14 0 0 1 18.14 18.14V5367H61z"/><path id="w564b" d="M82.94 5306c9.27 0 16.78 7.8 16.78 17.44 0 9.63-7.51 17.44-16.78 17.44-9.27 0-16.78-7.81-16.78-17.44 0-9.63 7.51-17.44 16.78-17.44z"/><path id="w564c" d="M109 5334.7a11.3 11.3 0 0 1 11.3-11.29h4.4a11.3 11.3 0 0 1 11.3 11.3V5346h-27z"/><path id="w564d" d="M122.78 5308c5.82 0 10.53 4.86 10.53 10.86 0 6-4.71 10.86-10.53 10.86-5.81 0-10.53-4.86-10.53-10.86 0-6 4.72-10.86 10.53-10.86z"/><clipPath id="w564e"><use fill="#fff" xlink:href="#w564a"/></clipPath><clipPath id="w564f"><use fill="#fff" xlink:href="#w564b"/></clipPath><clipPath id="w564g"><use fill="#fff" xlink:href="#w564c"/></clipPath><clipPath id="w564h"><use fill="#fff" xlink:href="#w564d"/></clipPath></defs><g><g transform="translate(-60 -5305)"><g><use fill="#fff" fill-opacity="0" stroke="#00d88e" stroke-miterlimit="50" stroke-width="4" clip-path="url(&quot;#w564e&quot;)" xlink:href="#w564a"/></g><g><use fill="#fff" fill-opacity="0" stroke="#001011" stroke-miterlimit="50" stroke-width="4" clip-path="url(&quot;#w564f&quot;)" xlink:href="#w564b"/></g></g><g transform="translate(-60 -5305)"><g><use fill="#fff" fill-opacity="0" stroke="#00d88e" stroke-miterlimit="50" stroke-width="4" clip-path="url(&quot;#w564g&quot;)" xlink:href="#w564c"/></g><g><use fill="#fff" fill-opacity="0" stroke="#001011" stroke-miterlimit="50" stroke-width="4" clip-path="url(&quot;#w564h&quot;)" xlink:href="#w564d"/></g></g></g></svg>